<?xml version="1.0" encoding="UTF-8" standalone="no"?>
<svg
   version="1.1"
   preserveAspectRatio="none"
   width="500"
   height="500"
   viewBox="0 0 500 500"
   id="svg33"
   sodipodi:docname="a4fc3408-e8f2-4cb6-a90e-9d12f9394da7.svg"
   inkscape:version="1.2 (dc2aedaf03, 2022-05-15)"
   xmlns:inkscape="http://www.inkscape.org/namespaces/inkscape"
   xmlns:sodipodi="http://sodipodi.sourceforge.net/DTD/sodipodi-0.dtd"
   xmlns="http://www.w3.org/2000/svg"
   xmlns:svg="http://www.w3.org/2000/svg">
  <defs
     id="defs37" />
  <sodipodi:namedview
     id="namedview35"
     pagecolor="#ffffff"
     bordercolor="#666666"
     borderopacity="1.0"
     inkscape:showpageshadow="2"
     inkscape:pageopacity="0.0"
     inkscape:pagecheckerboard="0"
     inkscape:deskcolor="#d1d1d1"
     showgrid="false"
     inkscape:zoom="1.486"
     inkscape:cx="250"
     inkscape:cy="249.66353"
     inkscape:window-width="1920"
     inkscape:window-height="1023"
     inkscape:window-x="0"
     inkscape:window-y="0"
     inkscape:window-maximized="1"
     inkscape:current-layer="svg33" />
  <svg
     viewBox="242.7634 303.1216 372.1208 319.8819"
     width="333"
     height="286.25293909934624"
     x="83.5px"
     y="106.8735px"
     preserveAspectRatio="none"
     version="1.1"
     id="svg31">
    <defs
       id="defs4" />
    <style
       id="style6">.companyName {fill:#EFEDE8;fill-opacity:1;}.icon1 {fill:#FF8038;fill-opacity:1;}.icon2 {fill:#E7240E;fill-opacity:1;}.icon3 {fill:#905330;fill-opacity:1;}.icon3-str {stroke:#905330;stroke-opacity:1;}</style>
    <g
       opacity="1"
       transform="rotate(0 242.7634 543.0035)"
       id="g13">
      <svg
         width="372.1208"
         height="80"
         x="242.7634"
         y="543.0035"
         version="1.1"
         preserveAspectRatio="none"
         viewBox="2.12 -26.8 126.51999999999998 27.2"
         id="svg11">
        <g
           transform="matrix(1 0 0 1 0 0)"
           class="companyName"
           id="g9">
          <path
             id="id-D6z1nYkh5"
             d="M14.84-26.80Q18.72-26.80 21.58-25.16Q24.44-23.52 25.98-20.46Q27.52-17.40 27.52-13.20L27.52-13.20Q27.52-9 25.98-5.94Q24.44-2.88 21.58-1.24Q18.72 0.40 14.84 0.40L14.84 0.40Q10.96 0.40 8.08-1.24Q5.20-2.88 3.66-5.94Q2.12-9 2.12-13.20L2.12-13.20Q2.12-17.40 3.66-20.46Q5.20-23.52 8.08-25.16Q10.96-26.80 14.84-26.80L14.84-26.80ZM14.84-22.28Q11.48-22.28 9.66-19.94Q7.84-17.60 7.84-13.20L7.84-13.20Q7.84-8.80 9.66-6.46Q11.48-4.12 14.84-4.12L14.84-4.12Q18.16-4.12 19.98-6.46Q21.80-8.80 21.80-13.20L21.80-13.20Q21.80-17.60 19.98-19.94Q18.16-22.28 14.84-22.28L14.84-22.28Z M44.16-26.40Q48.76-26.40 51.32-24.18Q53.88-21.96 53.88-17.92L53.88-17.92Q53.88-14 51.32-11.80Q48.76-9.60 44.16-9.60L44.16-9.60L38.60-9.60L38.60 0L33.08 0L33.08-26.40L44.16-26.40ZM43.32-13.88Q45.88-13.88 47.08-14.90Q48.28-15.92 48.28-17.96L48.28-17.96Q48.28-20 47.08-21Q45.88-22 43.32-22L43.32-22L38.60-22L38.60-13.88L43.32-13.88Z M64.44-4.44L79.28-4.44L79.28 0L58.92 0L58.92-26.40L78.72-26.40L78.72-21.96L64.44-21.96L64.44-15.40L75.68-15.40L75.68-11.16L64.44-11.16L64.44-4.44Z M89.76-4.44L103.68-4.44L103.68 0L84.24 0L84.24-26.40L89.76-26.40L89.76-4.44Z M113.80-4.44L128.64-4.44L128.64 0L108.28 0L108.28-26.40L128.08-26.40L128.08-21.96L113.80-21.96L113.80-15.40L125.04-15.40L125.04-11.16L113.80-11.16L113.80-4.44Z" />
        </g>
      </svg>
    </g>
    <g
       opacity="1"
       transform="rotate(0 335.7936 303.1216)"
       id="g29">
      <svg
         width="186.0604"
         height="209.8819"
         x="335.7936"
         y="303.1216"
         version="1.1"
         preserveAspectRatio="none"
         viewBox="28.999996185302734 20 141.84005737304688 160"
         id="svg27">
        <g
           transform="matrix(1 0 0 1 0 0)"
           id="g25">
          <g
             id="g23">
            <path
               d="M30.534 111.496c3.073-5.296 9.77-7.182 15.134-4.34l.39.216 32.48 18.846a37.863 37.863 0 0 1 18.853 32.012l.007.735V180l-49.78-28.763a37.259 37.259 0 0 1-18.611-31.522l-.007-.738v-1.781c0-2.002.529-3.968 1.534-5.7zm138.649-.011a11.356 11.356 0 0 1 1.534 5.7v1.781a37.258 37.258 0 0 1-18.618 32.26l-49.78 28.763v-21.035a37.86 37.86 0 0 1 18.859-32.747l32.48-18.846c5.426-3.148 12.376-1.302 15.525 4.124zM101.647 20v21.155a37.86 37.86 0 0 1-18.919 32.782L29.97 104.418V83.386a37.863 37.863 0 0 1 18.862-32.749L101.647 20z"
               data-color="1"
               class="icon1"
               id="path15" />
            <path
               opacity=".3"
               d="M78.539 126.219l-32.48-18.846c-5.426-3.148-12.376-1.302-15.524 4.124a11.356 11.356 0 0 0-1.534 5.7v1.781a37.258 37.258 0 0 0 18.618 32.26L97.398 180v-21.035a37.859 37.859 0 0 0-18.859-32.746z"
               data-color="2"
               class="icon2"
               id="path17" />
            <path
               opacity=".6"
               d="M121.178 126.208l32.48-18.846c5.426-3.148 12.376-1.302 15.524 4.124a11.356 11.356 0 0 1 1.534 5.7v1.781a37.258 37.258 0 0 1-18.618 32.26l-49.78 28.763v-21.035a37.861 37.861 0 0 1 18.86-32.747z"
               data-color="2"
               class="icon2"
               id="path19" />
            <path
               d="M132.804 61.335v-21.57l19.218 11.183a37.859 37.859 0 0 1 18.818 32.794l-.04 21.308-18.962-10.868a37.858 37.858 0 0 1-19.034-32.847z"
               data-color="2"
               class="icon2"
               id="path21" />
          </g>
        </g>
      </svg>
    </g>
  </svg>
</svg>
